<svg
              version="1.1"
              class="icon-logo-svg"
              xmlns="http://www.w3.org/2000/svg"
              xmlns:xlink="http://www.w3.org/1999/xlink"
              x="0px"
              y="0px"
              viewBox="0 0 91.6685 19.1649"
              enable-background="new 0 0 91.6685 19.1649"
              xml:space="preserve"
            >
              <g>
                <path fill="#a7b3bd" 
                
                  d="M6.9955,5.5138v2.7933H4.858v10.6632H1.4573V8.3071H0V5.5138h1.4573V4.7607c0-1.6189,0.429-2.801,1.2876-3.5464
    c0.8581-0.7445,2.2104-1.117,4.0565-1.117v2.8662c-0.7128,0-1.2147,0.1376-1.5062,0.4128C5.0037,3.6518,4.858,4.1135,4.858,4.7607
    v0.7531H6.9955z"
                ></path>
                <path fill="#a7b3bd" 
                  d="M10.3962,17.2455c-1.3116-1.279-1.9674-2.9549-1.9674-5.0277s0.6635-3.7406,1.9918-5.0037
    c1.3274-1.2631,2.9755-1.8945,4.9428-1.8945s3.615,0.6314,4.9428,1.8945s1.9918,2.9309,1.9918,5.0037s-0.6678,3.7487-2.0038,5.0277
    c-1.336,1.2799-2.9918,1.9194-4.9673,1.9194C13.3511,19.1649,11.7077,18.5254,10.3962,17.2455z M15.327,16.2743
    c0.9554,0,1.7771-0.3523,2.4654-1.057c0.6879-0.7038,1.0321-1.6999,1.0321-2.9875c0-1.2871-0.3399-2.279-1.0201-2.9755
    c-0.6798-0.6961-1.5019-1.0445-2.4654-1.0445c-0.9635,0-1.7771,0.3485-2.441,1.0445c-0.6644,0.6965-0.9957,1.6922-0.9957,2.9875
    c0,1.2961,0.3313,2.2914,0.9957,2.9875C13.562,15.9262,14.3712,16.2743,15.327,16.2743z"
                ></path>
                <path fill="#a7b3bd" 
                  d="M35.7302,5.5138l-4.3723,6.5823l4.3479,6.8742h-3.8379l-2.5747-4.0565l-2.4774,4.0565h-3.4491l4.3479-6.5583
    l-4.3479-6.8982h3.8379l2.5747,4.0805l2.4774-4.0805H35.7302z"
                ></path>
                <path fill="#a7b3bd" 
                  d="M43.381,19.1649c-1.9596,0-3.5545-0.6352-4.7851-1.9074c-1.231-1.2704-1.8461-2.9506-1.8461-5.0397
    s0.6194-3.7607,1.8581-5.0161c1.2391-1.2546,2.8422-1.8821,4.8095-1.8821c1.9674,0,3.5828,0.6112,4.846,1.8336
    c1.2627,1.2229,1.8945,2.8542,1.8945,4.8944c0,0.4698-0.0326,0.907-0.0973,1.312h-9.8128
    c0.0806,0.8744,0.4042,1.5782,0.9713,2.1131c0.5666,0.5341,1.2876,0.8015,2.162,0.8015c1.1817,0,2.0561-0.4861,2.6232-1.4573
    h3.6921c-0.3888,1.279-1.1414,2.324-2.2588,3.1332C46.3201,18.7603,44.9678,19.1649,43.381,19.1649z M45.6278,9.0113
    c-0.6074-0.5341-1.3403-0.8015-2.1984-0.8015c-0.8585,0-1.5747,0.2675-2.1495,0.8015c-0.5748,0.5345-0.9194,1.2473-1.0321,2.1375
    h6.3637C46.5631,10.2586,46.2352,9.5458,45.6278,9.0113z"
                ></path>
                <path fill="#a7b3bd" 
                  d="M56.2786,7.6029c0.955-1.522,2.3561-2.2833,4.2022-2.2833c1.8456,0,3.3677,0.6434,4.5661,1.9309
    c1.1984,1.2871,1.7976,2.9472,1.7976,4.9793c0,2.0325-0.5992,3.6964-1.7976,4.9917c-1.1984,1.2953-2.708,1.9434-4.5297,1.9434
    c-1.8221,0-3.2348-0.8178-4.2386-2.4534v2.2588h-3.4251V0.9957h3.4251V7.6029z M62.3144,15.1324
    c0.7047-0.7124,1.0565-1.6836,1.0565-2.9146c0-1.2306-0.3519-2.1941-1.0565-2.8906c-0.7042-0.6961-1.5345-1.0445-2.4899-1.0445
    c-0.9554,0-1.7852,0.3523-2.4894,1.0565c-0.7047,0.7047-1.0565,1.6725-1.0565,2.9026c0,1.231,0.3519,2.1988,1.0565,2.9026
    c0.7042,0.7046,1.534,1.057,2.4894,1.057C60.78,16.2014,61.6102,15.8456,62.3144,15.1324z"
                ></path>
                <path fill="#a7b3bd" 
                  d="M73.33,2.0891c0,0.5829-0.2027,1.0767-0.6074,1.4813c-0.405,0.405-0.895,0.6074-1.4697,0.6074
    c-0.5748,0-1.0647-0.2023-1.4693-0.6074c-0.4051-0.4046-0.6074-0.8984-0.6074-1.4813c0-0.5834,0.2023-1.0771,0.6074-1.4817
    C70.1882,0.2027,70.6781,0,71.2529,0c0.5748,0,1.0647,0.2027,1.4697,0.6074C73.1272,1.012,73.33,1.5057,73.33,2.0891z
     M69.5405,18.9703V5.5138h3.4251v13.4565H69.5405z"
                ></path>
                <path fill="#a7b3bd" 
                  d="M85.5718,5.5138v2.7933l-5.6595,7.8455h5.6595v2.8177h-9.6431v-2.8177l5.6835-7.8455h-5.6835V5.5138H85.5718z"
                ></path>
                <path fill="#a7b3bd" 
                  d="M91.6685,17.0269c0,0.5512-0.1903,1.0124-0.5709,1.3844c-0.3806,0.3729-0.8418,0.5589-1.3844,0.5589
    s-1.0004-0.186-1.3724-0.5589c-0.3729-0.372-0.5589-0.8332-0.5589-1.3844c0-0.5503,0.186-1.0115,0.5589-1.3844
    c0.372-0.372,0.8298-0.5589,1.3724-0.5589s1.0038,0.1869,1.3844,0.5589C91.4781,16.0154,91.6685,16.4766,91.6685,17.0269z"
                ></path>
              </g>
            </svg>