<svg version="1.1" class=" icon-logo-svg" xmlns="http://www.w3.org/2000/svg" xmlns:xlink="http://www.w3.org/1999/xlink" x="0px" y="0px" viewBox="0 0 99.244 15.5394" enable-background="new 0 0 99.244 15.5394" xml:space="preserve">
                  <g>
                    <path fill="#FFFFFF" d="M97.823,12.6509L97.823,12.6509c-0.7848,0-1.421-0.6362-1.421-1.421v-0.6502
      c0-0.7848,0.6362-1.421,1.421-1.421l0,0c0.7848,0,1.421,0.6362,1.421,1.421v0.6502C99.244,12.0147,98.6078,12.6509,97.823,12.6509z
      "></path>
                    <g>
                      <path fill="#a7b3bd" d="M1.421,10.2103L1.421,10.2103C0.6362,10.2103,0,9.5741,0,8.7893l0-2.0391
         c0-0.7848,0.6362-1.421,1.421-1.421h0c0.7848,0,1.421,0.6362,1.421,1.421v2.0391C2.8421,9.5741,2.2059,10.2103,1.421,10.2103z"></path>
                      <path fill="#a7b3bd" d="M6.302,12.3418L6.302,12.3418c-0.7848,0-1.421-0.6362-1.421-1.421v-6.302
         c0-0.7848,0.6362-1.421,1.421-1.421h0c0.7848,0,1.421,0.6362,1.421,1.421v6.302C7.723,11.7055,7.0868,12.3418,6.302,12.3418z"></path>
                      <path fill="#a7b3bd" d="M11.2447,15.5394L11.2447,15.5394c-0.7848,0-1.421-0.6362-1.421-1.421V1.421
         c0-0.7848,0.6362-1.421,1.421-1.421h0c0.7848,0,1.421,0.6362,1.421,1.421v12.6974
         C12.6658,14.9032,12.0296,15.5394,11.2447,15.5394z"></path>
                      <path fill="#a7b3bd" d="M16.1875,14.9646L16.1875,14.9646c-0.7848,0-1.421-0.6362-1.421-1.421V1.9959
         c0-0.7848,0.6362-1.421,1.421-1.421h0c0.7848,0,1.421,0.6362,1.421,1.421v11.5476
         C17.6085,14.3284,16.9723,14.9646,16.1875,14.9646z"></path>
                    </g>
                    <g>
                      <g>
                        <path fill="#a7b3bd" d="M25.3926,4.9827c-0.5986,0-0.9929,0.2179-0.9929,0.653c0,1.5779,5.0191,0.6802,5.0191,4.1078
            c0,1.945-1.7138,2.9378-3.8359,2.9378c-1.2927,0-2.6301-0.386-3.6991-1.0339c-0.4086-0.2477-0.5544-0.7711-0.342-1.1991
            l0.1336-0.2691c0.2395-0.4824,0.8379-0.6566,1.3006-0.3808c0.875,0.5216,1.8915,0.8564,2.6341,0.8564
            c0.7345,0,1.1971-0.2723,1.1971-0.7753c0-1.6186-5.0191-0.6394-5.0191-4.0126c0-1.7818,1.5099-2.9107,3.8084-2.9107
            c1.0508,0,2.1093,0.2447,2.9917,0.6368c0.4669,0.2075,0.6585,0.7706,0.4389,1.232l-0.1558,0.3274
            c-0.2156,0.453-0.7524,0.649-1.2107,0.4449C26.843,5.2329,25.9815,4.9827,25.3926,4.9827z"></path>
                      </g>
                      <g>
                        <path fill="#a7b3bd" d="M38.7559,8.9137c0,2.2713-1.6051,3.7676-4.0262,3.7676c-2.4212,0-4.0126-1.4963-4.0126-3.7676
            c0-2.258,1.5915-3.7543,4.0126-3.7543C37.1508,5.1595,38.7559,6.6557,38.7559,8.9137z M33.1518,8.9545
            c0,1.0881,0.6394,1.8226,1.5779,1.8226c0.9521,0,1.5915-0.7345,1.5915-1.8226c0-1.1017-0.6394-1.8362-1.5915-1.8362
            C33.7912,7.1183,33.1518,7.8529,33.1518,8.9545z"></path>
                      </g>
                      <g>
                        <path fill="#a7b3bd" d="M47.592,5.5563v6.7285c0,0.1739-0.141,0.3149-0.3149,0.3149h-1.791c-0.1739,0-0.3149-0.141-0.3149-0.3149
            v0c0-0.2733-0.3218-0.4136-0.5251-0.2311c-0.4756,0.427-1.0913,0.6452-1.8281,0.6548c-1.5915,0-2.6251-1.1017-2.6251-2.8155
            V5.5563c0-0.1739,0.141-0.3149,0.3149-0.3149h1.7913c0.1739,0,0.3149,0.141,0.3149,0.3149v3.643
            c0,0.8297,0.4623,1.3331,1.1832,1.3331c0.8569-0.0136,1.3739-0.6938,1.3739-1.6594V5.5563c0-0.1739,0.141-0.3149,0.3149-0.3149
            h1.791C47.451,5.2414,47.592,5.3824,47.592,5.5563z"></path>
                      </g>
                      <g>
                        <path fill="#a7b3bd" d="M56.7033,7.9617v4.3163c0,0.1777-0.1441,0.3218-0.3218,0.3218h-1.764
            c-0.1777,0-0.3218-0.1441-0.3218-0.3218V8.6551c0-0.8294-0.4898-1.3464-1.2512-1.3464
            c-0.8161,0.0136-1.3467,0.5714-1.4419,1.4011v3.5682c0,0.1777-0.1441,0.3218-0.3218,0.3218h-1.7776
            c-0.1777,0-0.3218-0.1441-0.3218-0.3218V5.5631c0-0.1777,0.1441-0.3218,0.3218-0.3218h1.7776
            c0.1777,0,0.3218,0.1441,0.3218,0.3218v0c0,0.2761,0.3234,0.422,0.5315,0.2405c0.4954-0.432,1.1412-0.6578,1.9033-0.6578
            C55.6421,5.1459,56.7033,6.2342,56.7033,7.9617z"></path>
                      </g>
                      <g>
                        <path fill="#a7b3bd" d="M66.3505,4.0415v7.6061c0,0.5258-0.4263,0.9521-0.9521,0.9521h-0.517
            c-0.5258,0-0.9521-0.4263-0.9521-0.9521v0c-0.5034,0.6802-1.2515,1.0473-2.1764,1.0473c-2.0673,0-3.4276-1.5235-3.4276-3.8084
            c0-2.2444,1.3467-3.7271,3.3733-3.7271c0.9521,0,1.7138,0.381,2.2308,1.0476V4.0415c0-0.6686,0.542-1.2106,1.2106-1.2106h0
            C65.8085,2.8309,66.3505,3.3729,66.3505,4.0415z M63.9293,8.9545c0-1.1017-0.6394-1.8362-1.5779-1.8362
            c-0.9521,0-1.5915,0.7481-1.5915,1.8362s0.6394,1.8362,1.5915,1.8362C63.29,10.7907,63.9293,10.0426,63.9293,8.9545z"></path>
                      </g>
                      <g>
                        <path fill="#a7b3bd" d="M76.0844,5.4725c0,0.5695-0.2103,1.0764-0.5796,1.4564c-0.3183,0.3275-0.3002,0.8383,0.0519,1.1291
            c0.5357,0.4426,0.8407,1.1078,0.8407,1.8894c0,1.6322-1.4283,2.6523-3.6727,2.6523h-3.9602
            c-0.4119,0-0.7459-0.3339-0.7459-0.7459V3.8108c0-0.4119,0.3339-0.7459,0.7459-0.7459h3.7834
            C74.7108,3.0649,76.0844,4.0034,76.0844,5.4725z M73.5272,5.9076c0-0.5711-0.4351-0.8977-1.1152-0.8977h-1.1719
            c-0.4119,0-0.7459,0.3339-0.7459,0.7459v0.358c0,0.4119,0.3339,0.7459,0.7459,0.7459h1.1719
            C73.0921,6.8597,73.5272,6.5062,73.5272,5.9076z M73.8267,9.6347c0-0.5986-0.5442-0.9796-1.4147-0.9796h-1.1719
            c-0.4119,0-0.7459,0.3339-0.7459,0.7459v0.5215c0,0.4119,0.3339,0.7459,0.7459,0.7459h1.1719
            C73.2825,10.6684,73.8267,10.2873,73.8267,9.6347z"></path>
                      </g>
                      <g>
                        <path fill="#a7b3bd" d="M84.872,9.5667h-3.7871c-0.4334,0-0.6777,0.5315-0.3684,0.835c0.3039,0.2982,0.7153,0.457,1.2013,0.457
            c0.4903,0,0.9722-0.1586,1.3933-0.4628c0.2041-0.1475,0.4812-0.1382,0.6593,0.0399l0.5825,0.5824
            c0.2024,0.2024,0.1994,0.5406-0.0194,0.7251c-0.7225,0.6091-1.6861,0.938-2.8332,0.938c-2.4076,0-3.8903-1.4827-3.8903-3.7268
            c0-2.2852,1.5371-3.7951,3.8359-3.7951c2.4059,0,3.7037,1.5129,3.7265,3.9035C85.3751,9.3398,85.1488,9.5667,84.872,9.5667z
             M82.4103,8.2744c0.3714,0,0.6157-0.3937,0.4469-0.7245c-0.2191-0.4294-0.6462-0.6902-1.1976-0.6902
            c-0.5072,0-0.9021,0.2362-1.1627,0.629c-0.2229,0.3359,0.007,0.7857,0.4101,0.7857H82.4103z"></path>
                      </g>
                      <g>
                        <path fill="#a7b3bd" d="M94.7015,7.9617v4.3163c0,0.1777-0.1441,0.3218-0.3218,0.3218h-1.764
            c-0.1777,0-0.3218-0.1441-0.3218-0.3218V8.6551c0-0.8294-0.4898-1.3464-1.2512-1.3464
            c-0.8161,0.0136-1.3467,0.5714-1.4419,1.4011v3.5682c0,0.1777-0.1441,0.3218-0.3218,0.3218h-1.7776
            c-0.1777,0-0.3218-0.1441-0.3218-0.3218V5.5631c0-0.1777,0.1441-0.3218,0.3218-0.3218h1.7776
            c0.1777,0,0.3218,0.1441,0.3218,0.3218v0c0,0.2761,0.3234,0.422,0.5315,0.2405c0.4954-0.432,1.1412-0.6578,1.9033-0.6578
            C93.6403,5.1459,94.7015,6.2342,94.7015,7.9617z"></path>
                      </g>
                    </g>
                  </g>
                </svg>