<svg version="1.1" class=" icon-logo-svg" xmlns="http://www.w3.org/2000/svg" xmlns:xlink="http://www.w3.org/1999/xlink" x="0px" y="0px" viewBox="0 0 145.9316 32.8701" enable-background="new 0 0 145.9316 32.8701" xml:space="preserve">
                  <g>
                    <path fill="#a7b3bd"  d="M24.8613,22.5029H8.1069c0.5405,3.1934,2.3584,4.4707,5.1592,4.4707c2.4565,0,3.9795-0.9824,4.52-2.7012l6.7808,2.1611
      c-1.4248,4.2744-5.6016,6.4365-11.3008,6.4365C4.6675,32.8701,0,28.2021,0,20.0957C0,11.9888,4.6187,7.3208,12.8237,7.3208
      c8.0088,0,12.2832,4.668,12.2832,12.4307C25.1069,20.5869,25.0088,21.8643,24.8613,22.5029z M8.0581,17.9829h9.2368
      c-0.3931-3.1445-1.916-4.8149-4.52-4.8149C10.1216,13.168,8.5493,14.6909,8.0581,17.9829z"></path>
                    <path fill="#a7b3bd"  d="M51.1489,7.8125l-8.8438,24.5664h-9.9741L23.4868,7.8125h8.7949l5.061,19.2598l5.1587-19.2598H51.1489z"></path>
                    <path fill="#a7b3bd"  d="M74.7832,22.5029H58.0288c0.5405,3.1934,2.3584,4.4707,5.1592,4.4707c2.4565,0,3.9795-0.9824,4.52-2.7012l6.7808,2.1611
      c-1.4248,4.2744-5.6016,6.4365-11.3008,6.4365c-8.5986,0-13.2661-4.668-13.2661-12.7744c0-8.1069,4.6187-12.7749,12.8237-12.7749
      c8.0088,0,12.2832,4.668,12.2832,12.4307C75.0288,20.5869,74.9307,21.8643,74.7832,22.5029z M57.98,17.9829h9.2368
      c-0.3931-3.1445-1.916-4.8149-4.52-4.8149C60.0435,13.168,58.4712,14.6909,57.98,17.9829z"></path>
                    <path fill="#a7b3bd"  d="M101.8564,16.0176v16.3613h-8.3525V18.3267c0-3.4883-1.4248-4.6187-3.4883-4.6187c-2.4077,0-4.4224,1.6216-4.4224,5.6997
      v12.9712h-8.3525V7.8125h7.4683l0.2456,4.7168c1.5723-3.4888,4.5693-5.2085,8.4019-5.2085
      C98.4175,7.3208,101.8564,10.3179,101.8564,16.0176z"></path>
                    <path fill="#a7b3bd"  d="M122.9365,31.0029c-1.6216,1.1299-4.373,1.8672-6.9277,1.8672c-5.5522,0-8.9917-2.1621-9.0405-7.8613V13.7573h-4.2256
      V7.8125h4.2256V2.3096L115.3208,0v7.8125h7.3701v5.9448h-7.3701v9.8765c0,2.3574,1.1792,3.291,3.2427,3.291
      c1.5234,0,2.5552-0.3926,3.5376-1.0801L122.9365,31.0029z"></path>
                    <path fill="#a7b3bd"  d="M122.2002,28.5459l4.3237-4.7168c1.4741,2.457,4.127,3.4893,7.2715,3.4893c2.3096,0,3.6851-0.6885,3.6851-1.7197
      c0-0.9336-1.1792-1.5234-4.4712-2.2109c-7.4678-1.4746-10.1704-3.8818-10.1704-7.9106s3.8325-8.1562,11.8413-8.1562
      c5.896,0,9.1387,1.7197,11.2515,4.6187l-4.5205,4.4219c-1.3755-2.4565-3.5376-3.4883-6.4854-3.4883
      c-2.4565,0-3.7344,0.8843-3.7344,1.8672c0,0.9824,1.0811,1.6211,4.5205,2.2598c7.2715,1.2778,10.1704,3.5869,10.1704,7.8125
      c0,4.5205-3.7832,8.0576-11.6934,8.0576C128.7842,32.8701,124.7061,31.5928,122.2002,28.5459z"></path>
                  </g>
                </svg>