<svg version="1.1" class=" icon-logo-svg" xmlns="http://www.w3.org/2000/svg" xmlns:xlink="http://www.w3.org/1999/xlink" x="0px" y="0px" viewBox="0 0 102.1 44.5" enable-background=" 0 0 102.1 44.5;" xml:space="preserve">
                  <g>
                    <path fill="#a7b3bd" stroke="#a7b3bd" stroke-width="2" stroke-miterlimit="10" d="M20.1,6.1c0,0.4-0.1,0.6-0.5,0.6c-0.4,0-0.7-0.2-0.8-0.6c-0.4-1.2-0.9-2-1.6-2.4c-0.7-0.5-1.7-0.7-3-0.7H8.9
      c-0.5,0-1,0.2-1.3,0.5S7.2,4.2,7.2,4.7v7.9c0,0.3,0.2,0.5,0.5,0.5H14c0.3,0,0.6-0.1,0.8-0.2c0.2-0.2,0.3-0.3,0.4-0.5
      c0.1-0.2,0.1-0.4,0.3-0.8l0.1-0.5c0.1-0.3,0.2-0.4,0.5-0.4c0.3,0,0.5,0.2,0.5,0.5l-0.1,3.1l0.1,3c0,0.3-0.1,0.5-0.4,0.5
      c-0.3,0-0.5-0.1-0.5-0.4l-0.1-0.6c-0.1-0.6-0.2-1.1-0.5-1.4c-0.2-0.3-0.5-0.5-1-0.5H7.6c-0.3,0-0.4,0.2-0.4,0.5v8.9
      c0,0.9,0.5,1.4,1.6,1.5l1.1,0.1c0.3,0,0.4,0.1,0.4,0.4c0,0.4-0.2,0.5-0.5,0.5l-4.1-0.1l-4.1,0.1c-0.3,0-0.5-0.2-0.5-0.5
      s0.1-0.5,0.4-0.5l1-0.1c0.5,0,0.9-0.2,1.2-0.4c0.3-0.3,0.5-0.6,0.5-1V3.8c0-0.9-0.6-1.3-1.7-1.4l-1-0.1C1.1,2.2,1,2.1,1,1.7
      c0-0.3,0.2-0.5,0.5-0.5l4.1,0.1H18c0.5,0,0.8,0.1,1.1,0.4c0.3,0.3,0.5,0.6,0.5,1L20.1,6.1z"></path>
                    <path fill="#a7b3bd" stroke="#a7b3bd" stroke-width="2" stroke-miterlimit="10" d="M36.8,1c3.8,0,6.8,1.2,9.1,3.6c2.3,2.4,3.4,5.5,3.4,9.3s-1.2,6.9-3.5,9.4S40.4,27,36.7,27
      c-3.7,0-6.8-1.2-9.1-3.7c-2.3-2.4-3.5-5.5-3.5-9.3c0-3.8,1.2-6.9,3.5-9.3C29.9,2.2,33,1,36.8,1z M43.8,6.7
      c-0.7-1.2-1.7-2.2-2.9-2.9c-1.2-0.7-2.7-1.1-4.3-1.1c-2.9,0-5.2,0.9-6.8,2.7c-1.6,1.8-2.4,4.2-2.4,7.3c0,3.2,0.7,6,2.2,8.6
      c0.7,1.2,1.7,2.2,2.9,3c1.2,0.8,2.7,1.1,4.3,1.1c2.9,0,5.1-0.9,6.7-2.8s2.4-4.4,2.4-7.6S45.2,9,43.8,6.7z"></path>
                    <path fill="#a7b3bd" stroke="#a7b3bd" stroke-width="2" stroke-miterlimit="10" d="M58.8,25.7c0.3,0,0.4,0.2,0.4,0.5c0,0.3-0.2,0.5-0.5,0.5L56,26.6l-3.8,0.1c-0.3,0-0.5-0.1-0.5-0.4
      s0.1-0.5,0.4-0.5l1.1-0.1c0.7-0.1,1.4-0.6,2.1-1.4l6.9-9.9L55.2,3.8c-0.6-0.9-1.3-1.4-2.1-1.4l-1-0.1c-0.3,0-0.4-0.2-0.4-0.5
      s0.2-0.4,0.5-0.4l3.3,0.1l3.7-0.1c0.4,0,0.5,0.2,0.5,0.5s-0.1,0.5-0.4,0.5l-0.6,0.1c-0.4,0-0.7,0.2-0.8,0.5
      c-0.1,0.3-0.1,0.6,0.1,0.9l6,7.9l5.5-7.9c0.2-0.3,0.3-0.6,0.1-0.9c-0.1-0.3-0.4-0.5-0.9-0.5L68,2.3c-0.3,0-0.4-0.2-0.4-0.5
      s0.2-0.5,0.5-0.5l2.7,0.1l3.8-0.1c0.3,0,0.5,0.1,0.5,0.4S75,2.2,74.7,2.2l-1.1,0.1c-0.7,0.1-1.4,0.6-2.1,1.4L65,13.2l7.2,11
      c0.6,0.9,1.3,1.4,2.1,1.4l1,0.1c0.3,0,0.4,0.2,0.4,0.5s-0.2,0.4-0.5,0.4l-4.2-0.1l-3.7,0.1c-0.4,0-0.5-0.2-0.5-0.5
      c0-0.3,0.1-0.5,0.4-0.5l0.7-0.1c0.4,0,0.7-0.2,0.8-0.5c0.1-0.3,0.1-0.6-0.1-0.9l-5.5-8.4l-6.7,8.4c-0.2,0.3,0.6,0.6,0.8,0.9
      c0.1,0.3,0.4,0.5,0.9,0.5L58.8,25.7z"></path>
                    <path fill="#a7b3bd" stroke="#a7b3bd" stroke-width="2" stroke-miterlimit="10" d="M98.9,26.6H85.4l-4.1,0.1c-0.3,0-0.5-0.2-0.5-0.5s0.1-0.5,0.4-0.5l1-0.1c0.5,0,0.9-0.2,1.2-0.4
      c0.3-0.3,0.5-0.6,0.5-1V3.8c0-0.9-0.6-1.3-1.7-1.4l-1-0.1c-0.3,0-0.4-0.2-0.4-0.5c0-0.3,0.2-0.5,0.5-0.5l4.1,0.1h12.8
      c0.5,0,0.8,0.1,1.1,0.4c0.3,0.3,0.5,0.6,0.5,1l0.5,3.3c0,0.4-0.1,0.6-0.5,0.6c-0.4,0-0.7-0.2-0.8-0.6c-0.4-1.2-0.9-2-1.6-2.4
      c-0.7-0.5-1.7-0.7-3-0.7h-5.7c-0.5,0-1,0.2-1.3,0.5c-0.3,0.3-0.5,0.7-0.5,1.2v7.6c0,0.3,0.2,0.5,0.5,0.5h6.7c0.3,0,0.6-0.1,0.8-0.3
      c0.2-0.2,0.3-0.3,0.4-0.5c0.1-0.1,0.1-0.4,0.3-0.8l0.1-0.5c0.1-0.3,0.3-0.4,0.5-0.4c0.3,0,0.4,0.2,0.4,0.5l-0.1,3.1l0.1,2.9
      c0,0.3-0.2,0.5-0.5,0.5c-0.3,0-0.5-0.1-0.5-0.4l-0.1-0.6c-0.2-1.2-0.7-1.9-1.5-1.9h-6.7c-0.3,0-0.4,0.2-0.4,0.5v8.4
      c0,0.5,0.2,0.9,0.5,1.2c0.3,0.3,0.8,0.5,1.3,0.5h5.9c1.2,0,2.3-0.3,3.2-0.9c0.9-0.6,1.5-1.5,1.9-2.7c0.1-0.4,0.3-0.6,0.6-0.6
      c0.3,0,0.5,0.1,0.6,0.2c0.1,0.1,0.2,0.3,0.1,0.5l-0.6,3.7c0,0.4-0.2,0.8-0.5,1C99.7,26.5,99.3,26.6,98.9,26.6z"></path>
                  </g>
                  <g>
                    <path fill="#a7b3bd" stroke="#a7b3bd" class="st1" d="M9.3,44.2H7.9c-0.3,0-0.5-0.1-0.6-0.3l-3-4.1c-0.1-0.1-0.2-0.2-0.3-0.3c-0.1-0.1-0.3-0.1-0.5-0.1H2.3v4.8H0.8
      V32.8H4c0.7,0,1.4,0.1,1.9,0.2s1,0.4,1.3,0.6c0.3,0.3,0.6,0.6,0.8,1c0.2,0.4,0.2,0.8,0.2,1.3c0,0.4-0.1,0.8-0.2,1.1
      c-0.1,0.4-0.3,0.7-0.6,0.9s-0.5,0.5-0.9,0.7c-0.3,0.2-0.7,0.3-1.2,0.4c0.2,0.1,0.4,0.3,0.5,0.5L9.3,44.2z M4,38.3
      c0.4,0,0.8-0.1,1.2-0.2C5.5,38,5.8,37.9,6,37.7s0.4-0.4,0.5-0.7s0.2-0.6,0.2-0.9c0-0.7-0.2-1.2-0.7-1.5C5.6,34.2,4.9,34,4,34H2.3
      v4.3H4z"></path>
                    <path fill="#a7b3bd" stroke="#a7b3bd" stroke-width="0.25" stroke-miterlimit="10" d="M31,43l0,1.3H24V32.8H31V34h-5.5v3.8H30V39h-4.5V43C25.5,43,31,43,31,43z"></path>
                    <path fill="#a7b3bd" stroke="#a7b3bd" stroke-width="0.25" stroke-miterlimit="10" d="M52.2,34.6c0,0.1-0.1,0.1-0.2,0.2s-0.1,0.1-0.2,0.1c-0.1,0-0.2,0-0.3-0.1c-0.1-0.1-0.3-0.2-0.5-0.3
      c-0.2-0.1-0.4-0.2-0.7-0.3c-0.3-0.1-0.6-0.1-0.9-0.1c-0.3,0-0.7,0-0.9,0.1c-0.3,0.1-0.5,0.2-0.7,0.4s-0.3,0.3-0.4,0.6
      s-0.1,0.4-0.1,0.7c0,0.3,0.1,0.6,0.2,0.8c0.2,0.2,0.4,0.4,0.6,0.5s0.6,0.3,0.9,0.4s0.7,0.2,1,0.3s0.7,0.2,1,0.4
      c0.3,0.1,0.6,0.3,0.9,0.6s0.5,0.5,0.6,0.8s0.2,0.7,0.2,1.2c0,0.5-0.1,1-0.3,1.4c-0.2,0.4-0.4,0.8-0.7,1.1s-0.7,0.6-1.2,0.8
      s-1,0.3-1.6,0.3c-0.7,0-1.4-0.1-2-0.4c-0.6-0.3-1.1-0.6-1.6-1.1l0.4-0.7c0-0.1,0.1-0.1,0.2-0.1s0.1-0.1,0.2-0.1
      c0.1,0,0.1,0,0.2,0.1c0.1,0.1,0.2,0.1,0.3,0.2c0.1,0.1,0.2,0.2,0.4,0.3c0.1,0.1,0.3,0.2,0.5,0.3s0.4,0.2,0.6,0.2s0.5,0.1,0.8,0.1
      c0.4,0,0.7-0.1,1-0.2c0.3-0.1,0.5-0.2,0.7-0.4c0.2-0.2,0.4-0.4,0.5-0.7c0.1-0.3,0.2-0.5,0.2-0.9c0-0.3-0.1-0.6-0.2-0.9
      c-0.2-0.2-0.4-0.4-0.6-0.6c-0.3-0.1-0.5-0.3-0.9-0.4c-0.3-0.1-0.7-0.2-1-0.3c-0.3-0.1-0.7-0.2-1-0.4c-0.3-0.1-0.6-0.3-0.9-0.6
      s-0.5-0.5-0.6-0.9s-0.2-0.8-0.2-1.3c0-0.4,0.1-0.8,0.2-1.2c0.2-0.4,0.4-0.7,0.7-1c0.3-0.3,0.7-0.5,1.1-0.7c0.4-0.2,0.9-0.3,1.5-0.3
      c0.6,0,1.2,0.1,1.7,0.3c0.5,0.2,1,0.5,1.4,0.9L52.2,34.6z"></path>
                    <path fill="#a7b3bd" stroke="#a7b3bd" stroke-width="0.25" stroke-miterlimit="10" d="M75.9,34.1h-3.7v10.2h-1.5V34.1H67v-1.3h9V34.1z"></path>
                    <path fill="#a7b3bd" stroke="#a7b3bd" stroke-width="0.25" stroke-miterlimit="10" d="M100.9,38.5c0,0.9-0.1,1.6-0.4,2.4c-0.3,0.7-0.7,1.3-1.2,1.9s-1.1,0.9-1.8,1.2s-1.5,0.4-2.3,0.4
      c-0.8,0-1.6-0.1-2.3-0.4s-1.3-0.7-1.8-1.2c-0.5-0.5-0.9-1.1-1.2-1.9c-0.3-0.7-0.4-1.5-0.4-2.4c0-0.9,0.1-1.6,0.4-2.4
      c0.3-0.7,0.7-1.3,1.2-1.9c0.5-0.5,1.1-0.9,1.8-1.2s1.5-0.4,2.3-0.4c0.8,0,1.6,0.1,2.3,0.4s1.3,0.7,1.8,1.2c0.5,0.5,0.9,1.1,1.2,1.9
      C100.7,36.8,100.9,37.6,100.9,38.5z M99.3,38.5c0-0.7-0.1-1.3-0.3-1.9c-0.2-0.6-0.5-1-0.8-1.4c-0.4-0.4-0.8-0.7-1.3-0.9
      S95.8,34,95.2,34c-0.6,0-1.2,0.1-1.7,0.3c-0.5,0.2-0.9,0.5-1.3,0.9c-0.4,0.4-0.6,0.9-0.8,1.4s-0.3,1.2-0.3,1.9
      c0,0.7,0.1,1.3,0.3,1.9s0.5,1,0.8,1.4c0.4,0.4,0.8,0.7,1.3,0.9c0.5,0.2,1.1,0.3,1.7,0.3c0.6,0,1.2-0.1,1.7-0.3
      c0.5-0.2,0.9-0.5,1.3-0.9c0.4-0.4,0.6-0.9,0.8-1.4C99.2,39.8,99.3,39.2,99.3,38.5z"></path>
                  </g>
                </svg>